<mxfile host="app.diagrams.net" modified="2023-07-08T02:51:57.058Z" agent="Mozilla/5.0 (Windows NT 10.0; Win64; x64) AppleWebKit/537.36 (KHTML, like Gecko) Chrome/114.0.0.0 Safari/537.36" version="21.2.3" etag="4VVOSvp_UjouAoo-6ecG" type="github">
  <diagram name="PÃ¡gina-1" id="9fsexh7ku2O3vwHBBF7t">
    <mxGraphModel>
      <root>
        <mxCell id="0" />
        <mxCell id="1" parent="0" />
      </root>
    </mxGraphModel>
  </diagram>
</mxfile>
